<!-- https://thenounproject.com/stormicons/uploads/ -->

<svg xmlns="http://www.w3.org/2000/svg" focusable="false">
    <symbol id="edit" viewBox="0 0 20 20">
        <path d="M4.3 10.3l10-10a1 1 0 0 1 1.4 0l4 4a1 1 0 0 1 0 1.4l-10 10a1 1 0 0 1-.7.3H5a1 1 0 0 1-1-1v-4a1 1 0 0 1 .3-.7zM6 14h2.59l9-9L15 2.41l-9 9V14zm10-2a1 1 0 0 1 2 0v6a2 2 0 0 1-2 2H2a2 2 0 0 1-2-2V4c0-1.1.9-2 2-2h6a1 1 0 1 1 0 2H2v14h14v-6z"/>
    </symbol>
    <symbol id="eye" viewBox="0 0 20 20">
        <path transform="translate(-2, -2)" d="M17.56 17.66a8 8 0 0 1-11.32 0L1.3 12.7a1 1 0 0 1 0-1.42l4.95-4.95a8 8 0 0 1 11.32 0l4.95 4.95a1 1 0 0 1 0 1.42l-4.95 4.95zm-9.9-1.42a6 6 0 0 0 8.48 0L20.38 12l-4.24-4.24a6 6 0 0 0-8.48 0L3.4 12l4.25 4.24zM11.9 16a4 4 0 1 1 0-8 4 4 0 0 1 0 8zm0-2a2 2 0 1 0 0-4 2 2 0 0 0 0 4z"/>
    </symbol>
    <symbol id="i18n" viewBox="0 0 60 60">
        <g transform="translate(-10, -10)">
            <path
                d="M40,16c0-2.21-1.79-4-4-4H16c-2.21,0-4,1.79-4,4v20c0,2.21,1.79,4,4,4h20c2.21,0,4-1.79,4-4V16z M31.38,32.92   C31.26,32.98,31.13,33,31,33c-0.39,0-0.76-0.23-0.92-0.62L28.25,28h-4.5l-1.83,4.38c-0.21,0.51-0.79,0.76-1.3,0.54   c-0.51-0.21-0.76-0.8-0.54-1.3L22,27.01V27l0.31-0.72l2.77-6.66C25.23,19.24,25.6,19,26,19s0.77,0.24,0.92,0.62l5,12   C32.14,32.12,31.89,32.71,31.38,32.92z"/>
            <polygon points="24.58,26 27.42,26 26,22.6  "/>
            <path
                d="M64,40H44c-2.21,0-4,1.79-4,4v20c0,2.21,1.79,4,4,4h20c2.21,0,4-1.79,4-4V44C68,41.79,66.21,40,64,40z M59.32,59.05   c0.52,0.18,0.8,0.74,0.63,1.27C59.81,60.74,59.42,61,59,61c-0.1,0-0.21-0.02-0.32-0.05c-1.97-0.66-3.5-1.5-4.68-2.4301   c-1.18,0.9301-2.71,1.77-4.68,2.4301C49.21,60.98,49.1,61,49,61c-0.42,0-0.81-0.26-0.95-0.68c-0.17-0.53,0.11-1.09,0.63-1.27   c1.61-0.53,2.87-1.2,3.85-1.93c-2.02-2.27-2.46-4.72-2.54-6.12H49c-0.55,0-1-0.45-1-1s0.45-1,1-1h4v-1c0-0.55,0.45-1,1-1   s1,0.45,1,1v1h4c0.55,0,1,0.45,1,1s-0.45,1-1,1h-0.99c-0.08,1.4-0.52,3.85-2.54,6.12C56.45,57.85,57.71,58.51,59.32,59.05z"/>
            <path d="M54,55.79c1.6-1.82,1.96-3.72,2.02-4.79h-4.05C52.02,52.07,52.38,53.98,54,55.79z"/>
            <path
                d="M43.1682,27.5222c0.0546,0.0865,0.1151,0.165,0.1927,0.2309c0.0157,0.0134,0.0223,0.0342,0.039,0.0467l4,3   C47.5801,30.9346,47.7905,31,47.999,31c0.3042,0,0.6045-0.1377,0.8008-0.4004c0.3315-0.4414,0.2422-1.0684-0.1997-1.3994   L46.9998,28H50c0.2856,0,7,0.0908,7,8c0,0.5527,0.4478,1,1,1s1-0.4473,1-1c0-9.8857-8.9102-10-9-10h-3.0002l1.6003-1.2002   c0.4419-0.3311,0.5313-0.958,0.1997-1.3994c-0.3301-0.4424-0.9565-0.5303-1.3999-0.2002l-4,3   c-0.0167,0.0125-0.0233,0.0333-0.039,0.0467c-0.0778,0.066-0.1383,0.1444-0.1929,0.231c-0.0224,0.0356-0.0514,0.0643-0.069,0.1024   C43.0389,26.7088,43,26.8487,43,27s0.0389,0.2911,0.099,0.4196C43.1168,27.4578,43.1458,27.4866,43.1682,27.5222z"/>
            <path
                d="M36.832,52.4779c-0.0546-0.0866-0.1151-0.165-0.1929-0.231c-0.0157-0.0134-0.0223-0.0342-0.039-0.0467l-4-3   c-0.4424-0.3311-1.0679-0.2422-1.3999,0.2002c-0.3315,0.4414-0.2422,1.0684,0.1997,1.3994L33.0002,52H30c-0.2856,0-7-0.0908-7-8   c0-0.5527-0.4478-1-1-1s-1,0.4473-1,1c0,9.8857,8.9102,10,9,10h3.0002l-1.6003,1.2002c-0.4419,0.3311-0.5313,0.958-0.1997,1.3994   C31.3965,56.8623,31.6968,57,32.001,57c0.2085,0,0.4189-0.0654,0.5991-0.2002l4-3c0.0167-0.0125,0.0233-0.0333,0.039-0.0467   c0.0777-0.0659,0.1382-0.1443,0.1927-0.2309c0.0224-0.0356,0.0514-0.0645,0.0692-0.1026C36.9611,53.2911,37,53.1513,37,53   s-0.0389-0.2912-0.099-0.4197C36.8834,52.5422,36.8544,52.5135,36.832,52.4779z"/>
        </g>
    </symbol>
    <symbol id="settings" viewBox="0 0 24 24">
        <g>
            <path
                d="M20.045,9.939l-1.502-0.153c-0.096-0.284-0.213-0.567-0.351-0.846l0.954-1.17c0.482-0.591,0.439-1.443-0.1-1.982   l-0.833-0.833c-0.539-0.539-1.391-0.582-1.982-0.101l-1.17,0.954c-0.269-0.133-0.552-0.251-0.846-0.35l-0.153-1.502   c-0.077-0.758-0.71-1.33-1.473-1.33h-1.178c-0.762,0-1.395,0.572-1.473,1.33L9.786,5.457C9.501,5.553,9.218,5.67,8.939,5.808   l-1.17-0.954C7.178,4.372,6.326,4.415,5.787,4.955L4.955,5.787c-0.539,0.539-0.582,1.391-0.1,1.982l0.954,1.17   c-0.133,0.269-0.251,0.552-0.35,0.847L3.955,9.939c-0.758,0.077-1.33,0.71-1.33,1.473v1.178c0,0.762,0.572,1.395,1.33,1.473   l1.502,0.153c0.096,0.284,0.213,0.567,0.351,0.846l-0.954,1.17c-0.482,0.591-0.439,1.443,0.1,1.982l0.833,0.833   c0.539,0.539,1.391,0.582,1.982,0.1l1.17-0.954c0.269,0.133,0.552,0.25,0.846,0.35l0.153,1.502c0.077,0.758,0.71,1.33,1.473,1.33   h1.178c0.762,0,1.395-0.572,1.473-1.33l0.153-1.502c0.285-0.096,0.567-0.213,0.846-0.351l1.17,0.954   c0.591,0.482,1.443,0.438,1.982-0.1l0.833-0.833c0.539-0.539,0.582-1.391,0.1-1.982l-0.954-1.17   c0.133-0.269,0.251-0.552,0.35-0.846l1.502-0.153c0.758-0.077,1.33-0.71,1.33-1.473v-1.178   C21.375,10.649,20.803,10.016,20.045,9.939z M20.388,12.589c0,0.254-0.191,0.465-0.443,0.491l-1.827,0.186   c-0.156,0.016-0.295,0.106-0.375,0.241c-0.025,0.042-0.043,0.087-0.054,0.134c-0.129,0.444-0.303,0.86-0.515,1.236   c-0.1,0.177-0.081,0.397,0.047,0.554l1.16,1.423c0.16,0.197,0.146,0.481-0.033,0.661l-0.833,0.833   c-0.179,0.179-0.464,0.194-0.661,0.033l-1.423-1.16c-0.123-0.101-0.288-0.134-0.441-0.093c-0.046,0.012-0.089,0.031-0.129,0.056   c-0.405,0.222-0.822,0.393-1.237,0.509c-0.196,0.054-0.338,0.223-0.359,0.425l-0.186,1.827c-0.026,0.253-0.237,0.444-0.491,0.444   h-1.178c-0.254,0-0.465-0.191-0.491-0.443l-0.186-1.827c-0.015-0.152-0.102-0.288-0.232-0.369c-0.045-0.028-0.093-0.048-0.143-0.06   c-0.445-0.13-0.861-0.304-1.236-0.515c-0.177-0.1-0.397-0.081-0.554,0.047l-1.423,1.16c-0.197,0.161-0.481,0.146-0.661-0.033   l-0.833-0.833c-0.18-0.179-0.194-0.463-0.033-0.66l1.16-1.423c0.1-0.123,0.134-0.287,0.093-0.441   c-0.012-0.046-0.031-0.089-0.056-0.129c-0.222-0.406-0.393-0.822-0.509-1.237c-0.054-0.196-0.223-0.338-0.425-0.359L4.055,13.08   c-0.253-0.026-0.444-0.237-0.444-0.491v-1.178c0-0.254,0.191-0.465,0.443-0.491l1.827-0.186c0.152-0.015,0.289-0.101,0.369-0.231   c0.03-0.049,0.051-0.101,0.063-0.156c0.129-0.44,0.301-0.851,0.512-1.224c0.1-0.177,0.081-0.397-0.047-0.554l-1.16-1.423   c-0.16-0.197-0.146-0.481,0.033-0.661l0.833-0.833c0.179-0.179,0.464-0.194,0.661-0.034l1.423,1.161   C8.692,6.88,8.857,6.914,9.01,6.872C9.056,6.86,9.099,6.841,9.139,6.816c0.405-0.222,0.821-0.393,1.237-0.509   c0.196-0.054,0.338-0.223,0.359-0.425l0.186-1.827c0.026-0.253,0.237-0.444,0.491-0.444h1.178c0.254,0,0.465,0.191,0.491,0.443   l0.186,1.827c0.015,0.152,0.102,0.288,0.232,0.369c0.045,0.028,0.093,0.048,0.143,0.06c0.444,0.13,0.86,0.303,1.236,0.515   c0.176,0.1,0.396,0.081,0.554-0.047l1.423-1.16c0.198-0.161,0.482-0.146,0.661,0.033l0.833,0.833   c0.18,0.18,0.194,0.464,0.033,0.661l-1.16,1.423c-0.1,0.123-0.134,0.287-0.093,0.441c0.012,0.046,0.031,0.089,0.056,0.129   c0.222,0.406,0.393,0.822,0.509,1.237c0.054,0.196,0.223,0.338,0.425,0.359l1.827,0.186c0.253,0.026,0.444,0.237,0.444,0.491   V12.589z"/>
            <path
                d="M12,8.546c-1.905,0-3.454,1.549-3.454,3.454s1.549,3.454,3.454,3.454s3.454-1.549,3.454-3.454S13.905,8.546,12,8.546z    M12,14.467c-1.36,0-2.467-1.107-2.467-2.467S10.64,9.533,12,9.533S14.467,10.64,14.467,12S13.36,14.467,12,14.467z"/>
        </g>
    </symbol>
    <symbol id="folder">
        <path
            d="M19.588,5.044h-6.514c-0.442,0-0.857-0.235-1.085-0.614l-0.792-1.32c-0.455-0.757-1.286-1.228-2.169-1.228H4.412  c-1.743,0-3.162,1.418-3.162,3.162v13.912c0,1.743,1.418,3.162,3.162,3.162h15.176c1.743,0,3.162-1.418,3.162-3.162V8.206  C22.75,6.463,21.332,5.044,19.588,5.044z M21.485,18.956c0,1.046-0.851,1.897-1.897,1.897H4.412c-1.046,0-1.897-0.851-1.897-1.897  V5.044c0-1.046,0.851-1.897,1.897-1.897h4.617c0.442,0,0.857,0.235,1.085,0.614l0.792,1.32c0.455,0.757,1.286,1.228,2.169,1.228  h6.514c1.046,0,1.897,0.851,1.897,1.897V18.956z"/>
        <path
            d="M19.588,5.044h-6.514c-0.442,0-0.857-0.235-1.085-0.614l-0.792-1.32c-0.455-0.757-1.286-1.228-2.169-1.228H4.412  c-1.743,0-3.162,1.418-3.162,3.162v13.912c0,1.743,1.418,3.162,3.162,3.162h15.176c1.743,0,3.162-1.418,3.162-3.162V8.206  C22.75,6.463,21.332,5.044,19.588,5.044z M21.485,18.956c0,1.046-0.851,1.897-1.897,1.897H4.412c-1.046,0-1.897-0.851-1.897-1.897  V5.044c0-1.046,0.851-1.897,1.897-1.897h4.617c0.442,0,0.857,0.235,1.085,0.614l0.792,1.32c0.455,0.757,1.286,1.228,2.169,1.228  h6.514c1.046,0,1.897,0.851,1.897,1.897V18.956z"/>
    </symbol>
    <symbol id="chevron" viewBox="0 0 10 6">
        <path
            d="M8.292893.292893c.390525-.390524 1.023689-.390524 1.414214 0 .390524.390525.390524 1.023689 0 1.414214l-4 4c-.390525.390524-1.023689.390524-1.414214 0l-4-4c-.390524-.390525-.390524-1.023689 0-1.414214.390525-.390524 1.023689-.390524 1.414214 0L5 3.585786 8.292893.292893z"/>
    </symbol>
    <symbol id="star" viewBox="0 0 24 24">
        <path
            d="M22.874,9.388c-0.219-0.672-0.791-1.136-1.493-1.21l-5.512-0.582l-2.257-5.061C13.324,1.889,12.707,1.488,12,1.488  s-1.324,0.401-1.612,1.046L8.131,7.596L2.619,8.178c-0.702,0.074-1.274,0.538-1.493,1.21c-0.218,0.672-0.027,1.384,0.497,1.857  l4.116,3.711l-1.15,5.421c-0.146,0.691,0.118,1.379,0.689,1.794c0.573,0.416,1.307,0.454,1.92,0.101l4.8-2.768l4.801,2.768  c0.278,0.161,0.582,0.24,0.884,0.24c0.363,0,0.723-0.114,1.035-0.341c0.571-0.415,0.836-1.103,0.689-1.794l-1.15-5.421l4.116-3.711  C22.901,10.772,23.092,10.061,22.874,9.388z M21.561,10.34l-4.377,3.945c-0.161,0.145-0.233,0.366-0.188,0.579l1.222,5.765  c0.068,0.322-0.146,0.507-0.213,0.556c-0.068,0.049-0.31,0.195-0.596,0.032l-5.105-2.943c-0.094-0.054-0.199-0.081-0.304-0.081  s-0.21,0.027-0.304,0.081l-5.105,2.943c-0.286,0.164-0.528,0.018-0.596-0.032c-0.067-0.049-0.282-0.234-0.213-0.556l1.222-5.765  c0.045-0.213-0.027-0.433-0.188-0.579L2.439,10.34c-0.245-0.221-0.18-0.497-0.155-0.576C2.311,9.685,2.42,9.424,2.748,9.39  L8.608,8.77C8.824,8.747,9.012,8.611,9.1,8.412l2.4-5.382c0.134-0.301,0.417-0.324,0.5-0.324s0.366,0.023,0.5,0.324l2.4,5.382  c0.089,0.199,0.276,0.335,0.492,0.358l5.861,0.619c0.328,0.034,0.437,0.296,0.463,0.375C21.741,9.844,21.806,10.12,21.561,10.34z"/>
    </symbol>
    <symbol id="property" viewBox="0 0 100 100">
        <path
            d="m16.76 93.87h-0.13c-0.63-0.04-1.21-0.38-1.55-0.91l-10.88-16.81c-0.52-0.8-0.4-1.87 0.29-2.53l13.89-13.35c0.07-0.07 0.15-0.13 0.23-0.19 7.52-5.3 16.25-2.53 16.61-2.41 3.54 0.97 10.51 1.21 10.58 1.21h11.95c3.54 0 6.59 2.03 7.87 4.91l18.8-10.32c2.09-1.17 4.51-1.48 6.61-0.85 1.86 0.56 3.37 1.81 4.25 3.54 1.96 3.83 0.31 8.77-3.68 11l-32.82 18.38c-0.15 0.08-0.31 0.15-0.47 0.19l-1.74 0.45c-0.15 0.04-0.3 0.06-0.45 0.06l-30.31 0.86c-0.78 0.31-3.88 1.75-7.53 6.06-0.37 0.45-0.93 0.71-1.52 0.71zm-8.31-18.51 8.58 13.25c4.27-4.33 7.69-5.37 7.85-5.41 0.16-0.05 0.33-0.07 0.5-0.08l30.39-0.86 1.27-0.33 32.61-18.25c2.1-1.18 3.05-3.78 2.08-5.69-0.49-0.96-1.28-1.36-1.85-1.53-1.07-0.32-2.36-0.13-3.52 0.52l-20.2 11.08c-0.64 3.79-4.17 6.69-8.41 6.69h-16.61c-1.1 0-2-0.9-2-2s0.9-2 2-2h16.63c2.47 0 4.49-1.75 4.51-3.9v-0.06c-0.02-2.15-2.03-3.9-4.51-3.9h-12.03c-0.37-0.01-7.59-0.26-11.67-1.38-0.16-0.05-7.21-2.24-13.04 1.77l-12.58 12.08z"/>
        <path d="m24.62 60.39c-1.1 0-2-0.9-2-2v-15.17c0-1.1 0.9-2 2-2s2 0.9 2 2v15.17c0 1.1-0.89 2-2 2z"/>
        <path
            d="m77.05 44.22c-0.25 0-0.49-0.09-0.68-0.27l-25.53-23.87-25.53 23.87c-0.4 0.38-1.03 0.36-1.41-0.05-0.38-0.4-0.36-1.04 0.05-1.41l26.2-24.5c0.11-0.1 0.24-0.18 0.38-0.22 0.1-0.03 0.2-0.05 0.3-0.05h0.01 0.1c0.22 0.02 0.44 0.11 0.6 0.26l26.2 24.5c0.4 0.38 0.42 1.01 0.05 1.41-0.21 0.23-0.47 0.33-0.74 0.33z"/>
        <path d="m77.05 60.78c-1.1 0-2-0.9-2-2v-15.56c0-1.1 0.9-2 2-2s2 0.9 2 2v15.56c0 1.11-0.9 2-2 2z"/>
        <path
            d="m24.63 45.22h-0.04l-10.4-0.18c-1.13-0.02-2.13-0.73-2.53-1.8-0.41-1.09-0.13-2.3 0.73-3.08l12.05-11.02v-15.81c0-1.1 0.9-2 2-2h7.71c1.1 0 2 0.9 2 2v5.17l12.83-11.65c1.05-0.96 2.64-0.96 3.69 0l36.63 33.31c0.86 0.78 1.15 1.99 0.74 3.08-0.4 1.07-1.4 1.78-2.54 1.8l-10.41 0.18h-0.04c-1.09 0-1.98-0.87-2-1.96-0.02-1.1 0.86-2.02 1.96-2.04l7.37-0.13-33.56-30.52-15.33 13.93c-0.59 0.53-1.43 0.67-2.15 0.35s-1.19-1.04-1.19-1.83v-7.69h-3.71v14.7c0 0.56-0.24 1.1-0.65 1.48l-10.49 9.59 7.37 0.13c1.1 0.02 1.98 0.93 1.96 2.04-0.02 1.08-0.92 1.95-2 1.95z"/>
        <path
            d="m50.85 44.17c-3.74 0-6.79-3.16-6.79-7.04s3.04-7.04 6.79-7.04 6.79 3.16 6.79 7.04-3.05 7.04-6.79 7.04zm0-12.09c-2.64 0-4.79 2.26-4.79 5.04s2.15 5.04 4.79 5.04 4.79-2.26 4.79-5.04-2.15-5.04-4.79-5.04z"/>
    </symbol>
    <symbol id="calendar" viewBox="0 0 24 24">
        <path
            d="M19.313,3.563h-1.688V1.875H16.5v1.688h-9V1.875H6.375v1.688H4.688c-1.551,0-2.813,1.262-2.813,2.813v12.938  c0,1.551,1.262,2.813,2.813,2.813h14.625c1.551,0,2.813-1.262,2.813-2.813V9.188V8.063V6.375  C22.125,4.824,20.863,3.563,19.313,3.563z M21,19.313C21,20.243,20.243,21,19.313,21H4.688C3.757,21,3,20.243,3,19.313V9.188h18  V19.313z M21,8.063H3V6.375c0-0.931,0.757-1.688,1.688-1.688h1.688v1.125H7.5V4.688h9v1.125h1.125V4.688h1.688  C20.243,4.688,21,5.444,21,6.375V8.063z"/>
    </symbol>
    <symbol id="location" viewBox="0 0 24 24">
        <path
            d="M12,6.619c-2.002,0-3.631,1.629-3.631,3.631S9.998,13.882,12,13.882s3.631-1.629,3.631-3.631S14.002,6.619,12,6.619z    M12,12.672c-1.335,0-2.421-1.086-2.421-2.421S10.665,7.83,12,7.83s2.421,1.086,2.421,2.421S13.335,12.672,12,12.672z"/>
        <path
            d="M12,1.172c-5.006,0-9.078,4.073-9.078,9.078c0,1.288,0.264,2.53,0.784,3.689c0.41,0.924,0.973,1.77,1.687,2.531l6.179,6.18   c0.113,0.113,0.267,0.177,0.428,0.177s0.314-0.064,0.428-0.177l6.193-6.194c0.7-0.746,1.263-1.593,1.672-2.515   c0.521-1.162,0.785-2.404,0.785-3.691C21.078,5.245,17.006,1.172,12,1.172z M19.188,13.449c-0.355,0.799-0.843,1.532-1.436,2.166   L12,21.367l-5.738-5.738c-0.607-0.647-1.095-1.381-1.451-2.182c-0.45-1.005-0.679-2.08-0.679-3.196c0-4.339,3.53-7.868,7.868-7.868   s7.868,3.529,7.868,7.868C19.868,11.366,19.639,12.442,19.188,13.449z"/>
    </symbol>
    <symbol id="image" viewBox="0 0 24 24">
        <path
            d="M19.279,1.688H4.721c-1.672,0-3.033,1.361-3.033,3.033v14.559c0,1.672,1.361,3.033,3.033,3.033h14.559   c1.672,0,3.033-1.361,3.033-3.033V4.721C22.313,3.048,20.952,1.688,19.279,1.688z M4.721,2.901h14.559   c1.004,0,1.82,0.816,1.82,1.82v10.837l-3.033-2.528l-3.623,3.019L7.711,9.928l-4.81,5.344V4.721   C2.901,3.717,3.717,2.901,4.721,2.901z M19.279,21.099H4.721c-1.004,0-1.82-0.816-1.82-1.82v-2.194l4.896-5.44l6.613,6.011   l3.657-3.048l3.033,2.527v2.142C21.099,20.283,20.283,21.099,19.279,21.099z"/>
        <path
            d="M16.246,10.787c1.672,0,3.033-1.361,3.033-3.033s-1.361-3.033-3.033-3.033c-1.672,0-3.033,1.361-3.033,3.033   S14.574,10.787,16.246,10.787z M16.246,5.934c1.004,0,1.82,0.816,1.82,1.82s-0.816,1.82-1.82,1.82c-1.004,0-1.82-0.816-1.82-1.82   S15.243,5.934,16.246,5.934z"/>
    </symbol>
    <symbol id="camera" viewBox="0 0 24 24">
        <path
            d="M19.675,5.969h-2.346l-0.722-2.165c-0.224-0.673-0.851-1.125-1.56-1.125H8.953c-0.709,0-1.336,0.452-1.56,1.124   L6.671,5.969H4.325c-1.511,0-2.741,1.23-2.741,2.741v9.868c0,1.511,1.23,2.741,2.741,2.741h15.351c1.511,0,2.741-1.23,2.741-2.741   V8.711C22.417,7.199,21.187,5.969,19.675,5.969z M21.32,18.579c0,0.907-0.738,1.645-1.645,1.645H4.325   c-0.907,0-1.645-0.738-1.645-1.645V8.711c0-0.907,0.738-1.645,1.645-1.645h2.741c0.236,0,0.445-0.151,0.52-0.375l0.847-2.54   c0.075-0.224,0.283-0.375,0.52-0.375h6.095c0.236,0,0.445,0.15,0.52,0.375l0.847,2.54c0.075,0.224,0.284,0.375,0.52,0.375h2.741   c0.907,0,1.645,0.738,1.645,1.645V18.579z"/>
        <path
            d="M12,7.614c-3.023,0-5.482,2.459-5.482,5.482S8.977,18.579,12,18.579s5.482-2.459,5.482-5.482S15.023,7.614,12,7.614z    M12,17.482c-2.418,0-4.386-1.968-4.386-4.386S9.582,8.711,12,8.711s4.386,1.968,4.386,4.386S14.418,17.482,12,17.482z"/>
    </symbol>
    <symbol id="heart" viewBox="0 0 24 24">
        <path
            d="M16.246,3.242c-1.607,0-3.151,0.677-4.246,1.837c-1.096-1.16-2.64-1.837-4.246-1.837c-3.22,0-5.839,2.619-5.839,5.839  c0,5.795,5.974,9.329,9.184,11.228c0.224,0.133,0.434,0.257,0.627,0.373c0.084,0.051,0.179,0.076,0.274,0.076  s0.19-0.025,0.274-0.076c0.193-0.116,0.403-0.241,0.627-0.373c3.21-1.899,9.184-5.433,9.184-11.228  C22.085,5.861,19.466,3.242,16.246,3.242z M12.361,19.395c-0.125,0.074-0.245,0.145-0.361,0.214  c-0.116-0.069-0.236-0.14-0.361-0.214C8.612,17.604,2.976,14.27,2.976,9.081c0-2.634,2.143-4.777,4.777-4.777  c1.494,0,2.923,0.716,3.822,1.916c0.201,0.267,0.649,0.267,0.85,0c0.899-1.2,2.327-1.916,3.822-1.916  c2.634,0,4.777,2.143,4.777,4.777C21.024,14.27,15.388,17.604,12.361,19.395z"/>
    </symbol>
    <symbol id="document" viewBox="0 0 24 24">
        <path
            d="M20.34,8.213L13.804,2.18c-0.308-0.285-0.709-0.441-1.129-0.441H5.898c-1.529,0-2.773,1.244-2.773,2.773v14.977  c0,1.529,1.244,2.773,2.773,2.773h12.203c1.529,0,2.773-1.244,2.773-2.773V9.435C20.875,8.973,20.68,8.527,20.34,8.213z   M13.664,3.56l5.237,4.835h-3.573c-0.918,0-1.664-0.746-1.664-1.664V3.56z M19.766,19.488c0,0.918-0.746,1.664-1.664,1.664H5.898  c-0.918,0-1.664-0.746-1.664-1.664V4.512c0-0.918,0.746-1.664,1.664-1.664h6.656V6.73c0,1.529,1.244,2.773,2.773,2.773h4.438V19.488  z"/>
    </symbol>
    <symbol id="documents" viewBox="0 0 24 24">
        <g>
            <path
                d="M18.681,2.75H5.319c-1.417,0-2.569,1.153-2.569,2.569v13.361c0,1.417,1.153,2.569,2.569,2.569h13.361   c1.417,0,2.569-1.153,2.569-2.569V5.319C21.25,3.903,20.097,2.75,18.681,2.75z M20.222,18.681c0,0.85-0.692,1.542-1.542,1.542   H5.319c-0.85,0-1.542-0.692-1.542-1.542V5.319c0-0.85,0.692-1.542,1.542-1.542h13.361c0.85,0,1.542,0.692,1.542,1.542V18.681z"/>
            <rect x="5.833" y="6.347" width="12.333" height="1.028"/>
            <rect x="5.833" y="9.944" width="12.333" height="1.028"/>
            <rect x="5.833" y="13.028" width="12.333" height="1.028"/>
            <rect x="5.833" y="16.625" width="12.333" height="1.028"/>
        </g>
    </symbol>
    <symbol id="documents-bag" viewBox="0 0 24 24">
        <g>
            <path
                d="M15.035,3.437h-6.07c-0.44,0-0.797,0.358-0.797,0.797v1.853H4.231c-0.737,0-1.337,0.6-1.337,1.337v11.801   c0,0.738,0.6,1.337,1.337,1.337H19.77c0.737,0,1.337-0.6,1.337-1.337V7.424c0-0.737-0.6-1.337-1.337-1.337h-3.937V4.234   C15.832,3.795,15.474,3.437,15.035,3.437z M9.071,4.34h5.858v1.747H9.071V4.34z M20.203,7.424v11.801   c0,0.239-0.194,0.434-0.433,0.434H4.231c-0.239,0-0.433-0.195-0.433-0.434V7.424c0-0.239,0.194-0.433,0.433-0.433H19.77   C20.009,6.991,20.203,7.185,20.203,7.424z"/>
        </g>
    </symbol>
    <symbol id="wallet" viewBox="0 0 100 100">
        <path
            d="m74.06 32.87c-0.77 0-1.5-0.44-1.83-1.19l-8.28-18.62-38.35 19.59c-0.98 0.5-2.19 0.11-2.69-0.87s-0.11-2.19 0.87-2.69l40.23-20.55c0.49-0.25 1.06-0.29 1.58-0.1 0.52 0.17 0.94 0.56 1.16 1.06l9.14 20.55c0.45 1.01 0 2.19-1.01 2.64-0.27 0.12-0.55 0.18-0.82 0.18z"/>
        <path
            d="m76.56 91.68h-59.34c-5.17 0-9.38-4.21-9.38-9.38v-44.05c0-5.17 4.21-9.38 9.38-9.38h59.34c5.17 0 9.38 4.21 9.38 9.38v9.36c0 1.1-0.9 2-2 2s-2-0.9-2-2v-9.36c0-2.97-2.42-5.38-5.38-5.38h-59.34c-2.97 0-5.38 2.42-5.38 5.38v44.05c0 2.97 2.42 5.38 5.38 5.38h59.34c2.97 0 5.38-2.42 5.38-5.38v-9.65c0-1.1 0.9-2 2-2s2 0.9 2 2v9.65c0.01 5.17-4.2 9.38-9.38 9.38z"/>
        <path
            d="m61.22 62.42c-1.19 0-2.15-0.96-2.15-2.15s0.96-2.15 2.15-2.15 2.15 0.96 2.15 2.15-0.97 2.15-2.15 2.15zm0-2.3c-0.08 0-0.15 0.07-0.15 0.15 0 0.17 0.3 0.17 0.3 0 0-0.08-0.07-0.15-0.15-0.15z"/>
        <path
            d="m90.16 74.33h-32.58c-5.17 0-9.38-4.21-9.38-9.38v-9.35c0-5.17 4.21-9.38 9.38-9.38h32.58c1.1 0 2 0.9 2 2v24.12c0 1.1-0.89 1.99-2 1.99zm-32.58-24.12c-2.97 0-5.38 2.42-5.38 5.38v9.35c0 2.97 2.42 5.38 5.38 5.38h30.58v-20.11h-30.58z"/>
        <path d="m19.82 76.14c-0.55 0-1-0.45-1-1v-31.66c0-0.55 0.45-1 1-1s1 0.45 1 1v31.67c0 0.55-0.45 0.99-1 0.99z"/>
    </symbol>
    <symbol id="webpage" viewBox="0 0 100 100">
        <path
            d="m89.14 87.42h-78.28c-3.16 0-5.73-2.57-5.73-5.73v-62.59c0-3.59 2.92-6.51 6.51-6.51h76.72c3.59 0 6.51 2.92 6.51 6.51v62.59c0 3.16-2.57 5.73-5.73 5.73zm-77.5-70.84c-1.39 0-2.51 1.13-2.51 2.51v62.59c0 0.95 0.78 1.73 1.73 1.73h78.29c0.95 0 1.73-0.78 1.73-1.73v-62.58c0-1.39-1.13-2.51-2.51-2.51h-76.73z"/>
        <path d="m92.87 34.22h-85.74c-0.55 0-1-0.45-1-1s0.45-1 1-1h85.74c0.55 0 1 0.45 1 1s-0.45 1-1 1z"/>
        <path d="m20.18 23.9c0 2.06-1.67 3.73-3.73 3.73s-3.73-1.67-3.73-3.73 1.67-3.73 3.73-3.73 3.73 1.68 3.73 3.73z"/>
        <path d="m31.36 23.9c0 2.06-1.67 3.73-3.73 3.73s-3.73-1.67-3.73-3.73 1.67-3.73 3.73-3.73 3.73 1.68 3.73 3.73z"/>
        <path d="m42.54 23.9c0 2.06-1.67 3.73-3.73 3.73s-3.73-1.67-3.73-3.73 1.67-3.73 3.73-3.73 3.73 1.68 3.73 3.73z"/>
    </symbol>
    <symbol id="newspaper" viewBox="0 0 100 100">
        <path d="m81.5 59.98h-45.03c-0.55 0-1-0.45-1-1s0.45-1 1-1h45.03c0.55 0 1 0.45 1 1s-0.45 1-1 1z"/>
        <path d="m81.89 70.32h-45.03c-0.55 0-1-0.45-1-1s0.45-1 1-1h45.03c0.55 0 1 0.45 1 1s-0.45 1-1 1z"/>
        <path d="m80.85 40.77h-21.48c-0.55 0-1-0.45-1-1s0.45-1 1-1h21.48c0.55 0 1 0.45 1 1s-0.45 1-1 1z"/>
        <path d="m80.72 51.07h-21.48c-0.55 0-1-0.45-1-1s0.45-1 1-1h21.48c0.55 0 1 0.45 1 1s-0.45 1-1 1z"/>
        <path d="m80.85 30.46h-21.48c-0.55 0-1-0.45-1-1s0.45-1 1-1h21.48c0.55 0 1 0.45 1 1s-0.45 1-1 1z"/>
        <path
            d="m83.21 83.64h-65.36-0.09-0.26c-5.41 0-9.81-4.4-9.81-9.81v-46.17c0-1.1 0.9-2 2-2h13.91v-7.29c0-1.1 0.9-2 2-2h64.71c1.1 0 2 0.9 2 2v56.17c0.01 5.01-4.08 9.1-9.1 9.1zm-57.52-4h57.52c2.81 0 5.1-2.29 5.1-5.11v-54.17h-60.71v53.47c0 2.17-0.71 4.18-1.91 5.81zm-14.01-49.98v44.17c0 3.2 2.61 5.81 5.81 5.81h0.27c3.22 0 5.84-2.61 5.84-5.81v-44.17h-11.92z"/>
        <path d="m17.59 74.87c-0.55 0-1-0.45-1-1v-46.21c0-0.55 0.45-1 1-1s1 0.45 1 1v46.21c0 0.55-0.44 1-1 1z"/>
        <path
            d="m53.3 49.65h-18.6c-0.55 0-1-0.45-1-1v-20.5c0-0.55 0.45-1 1-1h18.6c0.55 0 1 0.45 1 1v20.49c0 0.56-0.44 1.01-1 1.01zm-17.6-2h16.6v-18.5h-16.6v18.5z"/>
    </symbol>
    <symbol id="chat" viewBox="0 0 24 24">
        <g>
            <path
                d="M22.535,20.749c-0.718-0.407-1.225-1.087-1.414-1.885c0.716-1.141,1.093-2.455,1.093-3.816   c0-3.972-3.231-7.203-7.203-7.203s-7.203,3.231-7.203,7.203s3.231,7.203,7.203,7.203c1.191,0,2.356-0.292,3.395-0.849   c0.625,0.544,1.432,0.849,2.276,0.849c0.67,0,1.32-0.192,1.881-0.554c0.163-0.105,0.259-0.288,0.253-0.481   C22.81,21.021,22.704,20.844,22.535,20.749z M18.913,20.345c-0.109-0.124-0.262-0.189-0.417-0.189c-0.1,0-0.201,0.027-0.291,0.083   c-0.956,0.591-2.061,0.903-3.194,0.903c-3.361,0-6.095-2.734-6.095-6.095s2.734-6.095,6.095-6.095s6.095,2.734,6.095,6.095   c0,1.219-0.357,2.393-1.032,3.394c-0.079,0.117-0.11,0.261-0.087,0.4c0.144,0.871,0.558,1.654,1.174,2.252   C20.347,21.26,19.463,20.972,18.913,20.345z"/>
            <path
                d="M4.774,13.224c-0.477,0.542-1.228,0.801-1.931,0.687c0.538-0.546,0.899-1.249,1.027-2.027   c0.023-0.14-0.008-0.282-0.087-0.4C3.17,10.577,2.846,9.51,2.846,8.399c0-3.055,2.485-5.541,5.541-5.541   c2.486,0,4.681,1.671,5.339,4.064l1.069-0.294C14.005,3.756,11.37,1.75,8.387,1.75c-3.666,0-6.649,2.983-6.649,6.649   c0,1.253,0.344,2.461,0.997,3.508c-0.173,0.71-0.628,1.314-1.27,1.678c-0.168,0.095-0.274,0.271-0.281,0.465   c-0.006,0.193,0.089,0.376,0.251,0.481c0.518,0.338,1.124,0.517,1.755,0.517c0.771,0,1.511-0.276,2.089-0.769   c0.414,0.218,0.854,0.393,1.313,0.521l0.299-1.067c-0.503-0.141-0.977-0.347-1.41-0.614C5.25,12.977,4.952,13.022,4.774,13.224z"/>
        </g>
    </symbol>
    <symbol id="link" viewBox="0 0 24 24">
        <g>
            <path
                d="M21.361,3.575l-0.936-0.936c-0.75-0.75-1.747-1.163-2.808-1.163c-1.061,0-2.058,0.413-2.809,1.163l-3.276,3.276   l0.936,0.936l3.276-3.276c1.001-1,2.744-1,3.745,0l0.936,0.936c0.5,0.5,0.776,1.165,0.776,1.872s-0.275,1.372-0.776,1.872   l-5.148,5.149c-1.001,1-2.744,1-3.745,0l-0.936-0.936L9.66,13.404l0.936,0.936c0.75,0.75,1.747,1.164,2.808,1.164   s2.058-0.413,2.809-1.163l5.148-5.149c0.75-0.75,1.164-1.748,1.164-2.808S22.111,4.325,21.361,3.575z"/>
            <path
                d="M8.255,20.425c-1.001,1.001-2.743,1.001-3.744,0l-0.936-0.936c-0.5-0.5-0.776-1.165-0.776-1.872   c0-0.707,0.275-1.372,0.776-1.873l5.148-5.148c1.033-1.032,2.713-1.032,3.745,0l0.936,0.936l0.936-0.936L13.404,9.66   c-1.549-1.548-4.068-1.549-5.617,0l-5.148,5.148c-0.75,0.75-1.164,1.748-1.164,2.809c0,1.061,0.413,2.058,1.164,2.808l0.936,0.936   c0.75,0.75,1.747,1.164,2.808,1.164s2.058-0.413,2.808-1.164l3.277-3.276l-0.936-0.936L8.255,20.425z"/>
        </g>
    </symbol>
    <symbol id="bell">
        <g>
            <path
                d="M11.997,1.854c0.574,0,1.041,0.467,1.041,1.041h1.041c0-1.148-0.933-2.081-2.081-2.081c-1.148,0-2.081,0.933-2.081,2.081   h1.041C10.956,2.321,11.423,1.854,11.997,1.854z"/>
            <path
                d="M11.993,22.146c-0.658,0-1.263-0.229-1.663-0.63c-0.19-0.19-0.415-0.505-0.415-0.93l-1.041-0.002   c-0.001,0.61,0.254,1.202,0.719,1.668c0.593,0.594,1.468,0.935,2.399,0.935c1.721,0,3.123-1.167,3.126-2.601l-1.041-0.002   C14.076,21.446,13.141,22.146,11.993,22.146z"/>
            <path
                d="M21.351,17.854c0.067-0.731,0.146-1.836-0.333-2.72l-0.083-0.087c-0.143-0.17-0.312-0.327-0.491-0.492   c-0.7-0.649-1.659-1.538-1.865-4.152C18.3,6.93,15.949,3.415,11.997,3.415c-3.952,0-6.303,3.515-6.582,6.988   c-0.207,2.613-1.165,3.502-1.865,4.151c-0.179,0.166-0.348,0.323-0.491,0.492l-0.059,0.087c-0.479,0.884-0.424,1.988-0.356,2.72   c0.018,0.193-0.012,0.361-0.012,0.492v0.305L2.944,18.8c2.202,1.231,5.088,1.804,9.03,1.804c3.943,0,6.862-0.573,9.065-1.804   l0.324-0.149v-0.305C21.363,18.215,21.333,18.046,21.351,17.854z M20.268,17.758c-0.009,0.095-0.017,0.185-0.023,0.269   c-2.01,1.047-4.642,1.536-8.247,1.536c-3.605,0-6.237-0.489-8.248-1.536c-0.007-0.084-0.015-0.174-0.023-0.269   c-0.058-0.626-0.136-1.477,0.164-2.081c0.098-0.109,0.224-0.226,0.368-0.36c0.779-0.722,1.956-1.814,2.195-4.831   c0.233-2.904,2.068-6.03,5.544-6.03s5.311,3.126,5.544,6.03c0.239,3.018,1.417,4.11,2.196,4.832c0.144,0.134,0.27,0.251,0.368,0.36   C20.404,16.28,20.325,17.132,20.268,17.758z"/>
        </g>
    </symbol>
    <symbol id="data" viewBox="0 0 100 100">
        <path
            d="m50 57.23c-3.03 0-6.06-0.67-8.42-2l-32.3-18.23c-2.6-1.47-4.08-3.63-4.08-5.94s1.49-4.48 4.08-5.94l32.3-18.23c4.72-2.67 12.12-2.67 16.85 0l32.29 18.23c2.6 1.47 4.08 3.63 4.08 5.94s-1.49 4.48-4.08 5.94l-32.3 18.23c-2.36 1.33-5.39 2-8.42 2zm0-48.34c-2.35 0-4.71 0.49-6.46 1.48l-32.29 18.23c-1.3 0.74-2.05 1.63-2.05 2.46s0.75 1.72 2.05 2.46l32.29 18.23c3.5 1.98 9.42 1.98 12.92 0l32.29-18.23c1.3-0.74 2.05-1.63 2.05-2.46s-0.75-1.72-2.05-2.46l-32.29-18.23c-1.75-0.99-4.11-1.48-6.46-1.48z"/>
        <path
            d="m50 76.35c-3.03 0-6.06-0.67-8.42-2l-32.3-18.22c-2.6-1.47-4.09-3.63-4.08-5.94 0-2.31 1.49-4.48 4.08-5.94l9.6-5.32c0.97-0.54 2.18-0.19 2.72 0.78s0.19 2.18-0.78 2.72l-9.59 5.31c-1.29 0.73-2.04 1.63-2.04 2.45 0 0.83 0.75 1.72 2.05 2.46l32.29 18.23c3.5 1.98 9.42 1.98 12.92 0l32.29-18.23c1.3-0.74 2.05-1.63 2.05-2.46s-0.75-1.72-2.05-2.46l-9.57-5.31c-0.97-0.54-1.32-1.75-0.78-2.72s1.75-1.31 2.72-0.78l9.59 5.31c2.61 1.47 4.1 3.64 4.1 5.95s-1.49 4.48-4.08 5.94l-32.3 18.23c-2.36 1.34-5.39 2-8.42 2z"/>
        <path
            d="m50 95.11c-3.03 0-6.06-0.67-8.42-2l-32.3-18.23c-2.6-1.47-4.08-3.63-4.08-5.94s1.49-4.47 4.08-5.94l9.35-5.11c0.97-0.53 2.18-0.17 2.71 0.8s0.17 2.18-0.8 2.71l-9.33 5.09c-1.28 0.72-2.03 1.62-2.03 2.44s0.75 1.72 2.05 2.46l32.29 18.23c3.5 1.98 9.42 1.98 12.92 0l32.31-18.22c1.3-0.74 2.05-1.63 2.05-2.46s-0.75-1.72-2.05-2.46l-8.82-5.46c-0.94-0.58-1.23-1.81-0.65-2.75s1.81-1.23 2.75-0.65l8.75 5.42c2.53 1.42 4.01 3.59 4.01 5.9s-1.49 4.48-4.08 5.94l-32.29 18.23c-2.36 1.34-5.39 2-8.42 2z"/>
    </symbol>
    <symbol id="lock-open" viewBox="0 0 20 20">
        <path transform="translate(-2, -2)" d="M9 10h10a2 2 0 0 1 2 2v8a2 2 0 0 1-2 2H5a2 2 0 0 1-2-2v-8c0-1.1.9-2 2-2h2V7a5 5 0 1 1 10 0 1 1 0 0 1-2 0 3 3 0 0 0-6 0v3zm-4 2v8h14v-8H5zm7 2a1 1 0 0 1 1 1v2a1 1 0 0 1-2 0v-2a1 1 0 0 1 1-1z"/>
    </symbol>
    <symbol id="lock-close" viewBox="0 0 20 20">
        <path transform="translate(-2, -2)" d="M7 10V7a5 5 0 1 1 10 0v3h2a2 2 0 0 1 2 2v8a2 2 0 0 1-2 2H5a2 2 0 0 1-2-2v-8c0-1.1.9-2 2-2h2zm2 0h6V7a3 3 0 0 0-6 0v3zm-4 2v8h14v-8H5zm7 2a1 1 0 0 1 1 1v2a1 1 0 0 1-2 0v-2a1 1 0 0 1 1-1z"/>
    </symbol>
    <symbol id="send" viewBox="0 0 24 24">
        <path
            d="M21.273,2.727c-0.152-0.152-0.379-0.198-0.579-0.118L2.905,9.801c-0.213,0.086-0.347,0.298-0.333,0.528  c0.014,0.229,0.172,0.424,0.394,0.485l8.031,2.19l2.19,8.031c0.061,0.222,0.256,0.38,0.485,0.393  c0.01,0.001,0.021,0.001,0.031,0.001c0.217,0,0.414-0.131,0.496-0.335L21.39,3.306C21.471,3.107,21.425,2.879,21.273,2.727z   M13.802,19.222l-1.853-6.795c-0.05-0.183-0.193-0.326-0.376-0.376l-6.795-1.853l15.147-6.123L13.802,19.222z"/>
    </symbol>
    <symbol id="search" viewBox="0 0 24 24">
        <path
            d="M20.852,20.062l-4.608-4.608c1.141-1.323,1.834-3.043,1.834-4.923c0-4.162-3.386-7.547-7.547-7.547  c-4.161,0-7.547,3.386-7.547,7.547s3.386,7.547,7.547,7.547c1.88,0,3.6-0.693,4.923-1.834l4.608,4.608  c0.109,0.109,0.252,0.164,0.395,0.164c0.143,0,0.286-0.055,0.395-0.164C21.071,20.634,21.071,20.28,20.852,20.062z M10.531,16.96  c-3.545,0-6.429-2.884-6.429-6.429s2.884-6.429,6.429-6.429c3.545,0,6.429,2.884,6.429,6.429S14.076,16.96,10.531,16.96z"/>
    </symbol>
    <symbol id="envelope" viewBox="0 0 24 24">
        <path
            d="M19.177,3.719H4.823c-1.522,0-2.76,1.238-2.76,2.76v11.042c0,1.522,1.238,2.76,2.76,2.76h14.354  c1.522,0,2.76-1.238,2.76-2.76V6.479C21.938,4.957,20.699,3.719,19.177,3.719z M4.823,4.823h14.354c0.811,0,1.485,0.587,1.626,1.358  L12,11.359L3.197,6.181C3.338,5.41,4.012,4.823,4.823,4.823z M19.177,19.177H4.823c-0.913,0-1.656-0.743-1.656-1.656V7.444  L12,12.641l8.833-5.196v10.076C20.833,18.434,20.09,19.177,19.177,19.177z"/>
    </symbol>
    <symbol id="share" viewBox="0 0 24 24">
        <path
            d="M18.188,14.25c-1.337,0-2.519,0.671-3.231,1.693l-5.409-2.705C9.677,12.849,9.75,12.433,9.75,12s-0.073-0.849-0.203-1.239  l5.409-2.705c0.712,1.022,1.894,1.693,3.231,1.693c2.171,0,3.938-1.766,3.938-3.938s-1.766-3.938-3.938-3.938  S14.25,3.641,14.25,5.813c0,0.433,0.073,0.849,0.203,1.239L9.043,9.756C8.331,8.734,7.15,8.063,5.813,8.063  c-2.171,0-3.938,1.766-3.938,3.938s1.766,3.938,3.938,3.938c1.337,0,2.519-0.671,3.231-1.693l5.409,2.705  c-0.13,0.39-0.203,0.806-0.203,1.239c0,2.171,1.766,3.938,3.938,3.938s3.938-1.766,3.938-3.938S20.359,14.25,18.188,14.25z   M18.188,3C19.738,3,21,4.262,21,5.813s-1.262,2.813-2.813,2.813s-2.813-1.262-2.813-2.813S16.637,3,18.188,3z M5.813,14.813  C4.262,14.813,3,13.551,3,12s1.262-2.813,2.813-2.813S8.625,10.449,8.625,12S7.363,14.813,5.813,14.813z M18.188,21  c-1.551,0-2.813-1.262-2.813-2.813s1.262-2.813,2.813-2.813S21,16.637,21,18.188S19.738,21,18.188,21z"/>
    </symbol>
    <symbol id="trash" viewBox="0 0 20 20">
        <path fill-rule="nonzero"
              d="M6 4V2a2 2 0 0 1 2-2h4a2 2 0 0 1 2 2v2h5a1 1 0 0 1 0 2h-1v12a2 2 0 0 1-2 2H4a2 2 0 0 1-2-2V6H1a1 1 0 1 1 0-2h5zM4 6v12h12V6H4zm8-2V2H8v2h4zM8 8a1 1 0 0 1 1 1v6a1 1 0 0 1-2 0V9a1 1 0 0 1 1-1zm4 0a1 1 0 0 1 1 1v6a1 1 0 0 1-2 0V9a1 1 0 0 1 1-1z"/>
    </symbol>
    <symbol id="dots" viewBox="0 0 512 512">
        <path
            d="M102.4,213.3c-23.5,0-42.7,19.1-42.7,42.7s19.1,42.7,42.7,42.7s42.7-19.1,42.7-42.7    S125.9,213.3,102.4,213.3z"/>
        <path
            d="M256,213.3c-23.5,0-42.7,19.1-42.7,42.7s19.1,42.7,42.7,42.7s42.7-19.1,42.7-42.7S279.5,213.3,256,213.3z"/>
        <path
            d="M409.6,213.3c-23.5,0-42.7,19.1-42.7,42.7s19.1,42.7,42.7,42.7s42.7-19.1,42.7-42.7    S433.1,213.3,409.6,213.3z"/>
    </symbol>
    <symbol id="home" viewBox="0 0 40 40">
        <path transform="translate(0 -3)"
              d="M34.5,40h-9.741c-0.553,0-1-0.447-1-1V27.726c0-2.102-1.687-3.812-3.759-3.812c-2.108,0-3.759,1.628-3.759,3.705V39    c0,0.553-0.448,1-1,1H5.5c-0.552,0-1-0.447-1-1V18c0-0.31,0.144-0.603,0.39-0.792l14.5-11.167c0.36-0.276,0.86-0.276,1.221,0    l14.5,11.167C35.356,17.397,35.5,17.69,35.5,18v21C35.5,39.553,35.053,40,34.5,40z M25.759,38H33.5V18.492L20,8.096L6.5,18.492V38    h7.741V27.619c0-3.146,2.583-5.705,5.759-5.705c3.176,0,5.759,2.607,5.759,5.812V38z"/>
    </symbol>
    <symbol id="order-desc" viewBox="0 0 100 100">
        <g>
            <path
                d="M24.9,24c-2-1.9-5.1-2-7.1,0L4,37.9C2,39.9,2,43,4,45c1.9,2,5.1,2,7.1,0l5.4-5.4v32.8c0,2.8,2.2,5,5,5s5-2.2,5-5V39.6     l5.4,5.4c1,1,2.3,1.5,3.5,1.5c1.3,0,2.6-0.5,3.5-1.5c2-2,2-5.1,0-7.1L24.9,24z"/>
            <path
                d="M92.5,67.4H53.2c-2.8,0-5,2.2-5,5s2.2,5,5,5h39.3c2.8,0,5-2.2,5-5S95.3,67.4,92.5,67.4z"/>
            <path
                d="M53.2,55h29.3c2.8,0,5-2.2,5-5s-2.2-5-5-5H53.2c-2.8,0-5,2.2-5,5S50.4,55,53.2,55z"/>
            <path
                d="M53.2,32.6h19.4c2.8,0,5-2.2,5-5s-2.2-5-5-5H53.2c-2.8,0-5,2.2-5,5S50.4,32.6,53.2,32.6z"/>
        </g>
    </symbol>
    <symbol id="order-asc" viewBox="0 0 100 100">
        <g>
            <path
                d="M31.8,55l-5.4,5.4V27.6c0-2.8-2.2-5-5-5s-5,2.2-5,5v32.8L11,55c-2-2-5.1-2-7.1,0c-2,2-2,5.1,0,7.1L17.9,76     c1,1,2.3,1.5,3.5,1.5s2.6-0.5,3.5-1.5l13.9-13.9c2-1.9,2-5.1,0-7.1C36.9,53.1,33.7,53,31.8,55z"/>
            <path
                d="M92.5,67.4H53.2c-2.8,0-5,2.2-5,5s2.2,5,5,5h39.3c2.8,0,5-2.2,5-5S95.3,67.4,92.5,67.4z"/>
            <path
                d="M53.2,55h29.3c2.8,0,5-2.2,5-5s-2.2-5-5-5H53.2c-2.8,0-5,2.2-5,5S50.4,55,53.2,55z"/>
            <path
                d="M53.2,32.6h19.4c2.8,0,5-2.2,5-5s-2.2-5-5-5H53.2c-2.8,0-5,2.2-5,5S50.4,32.6,53.2,32.6z"/>
        </g>
    </symbol>
    <symbol id="users" viewBox="0 0 90 90">
        <g transform="translate(12 -38)">
            <path
                d="M71,126H4.2c-0.7,0-1.3-0.3-1.7-0.8c-0.4-0.5-0.6-1.2-0.4-1.8c0-0.1,0-0.2,0.1-0.5c0.3-2.1,1.1-8.6,7-12.8     c1.2-0.9,2.7-1.5,4.3-2l1.4-0.4c0,0,0.1,0,0.1,0l11.5-4c1-0.4,2.2,0.2,2.5,1.2c0.4,1-0.2,2.2-1.2,2.5l-11.2,3.9     c-0.1,0.1-0.2,0.1-0.3,0.1l-1.7,0.5c-1.2,0.3-2.2,0.8-3.1,1.4c-3.6,2.5-4.7,6.2-5.1,8.5h62.6c-0.4-2.3-1.4-5.7-4.7-8.2     c-1-0.8-2.3-1.4-3.6-1.8l-1.6-0.4c-0.1,0-0.2-0.1-0.3-0.1l-11.2-3.9c-1-0.4-1.6-1.5-1.2-2.5c0.4-1,1.5-1.6,2.5-1.2l11.5,4     c0,0,0.1,0,0.1,0l1.4,0.4c1.8,0.5,3.5,1.4,4.9,2.4c5.4,4.1,6.1,10.1,6.4,12.3c0,0.2,0,0.4,0.1,0.5c0.1,0.6,0,1.3-0.4,1.8     C72.3,125.7,71.7,126,71,126z M69.2,124.2C69.2,124.2,69.2,124.2,69.2,124.2C69.2,124.2,69.2,124.2,69.2,124.2z M6,124.1     C6,124.1,6,124.2,6,124.1C6,124.2,6,124.1,6,124.1z"/>
            <path
                d="M18.9,87.5c-0.5,0-1.1-0.1-1.6-0.3c-2.5-1-4.6-4.4-5.5-7c-1.6-4.3-0.5-8.8,2.6-10.2c1.2-0.6,2.7-0.6,4-0.1     c2,0.8,3.7,2.7,4.7,5.3v0c1.4,3.7,0.9,10.3-2.6,11.9C20,87.4,19.4,87.5,18.9,87.5z M16.4,73.5c-0.2,0-0.3,0.1-0.3,0.1     c-0.9,0.4-1.5,2.7-0.5,5.2c1,2.7,2.7,4.5,3.3,4.7c0.7-0.6,1.5-4.1,0.5-6.9v0c-0.7-1.8-1.7-2.7-2.4-3     C16.7,73.5,16.5,73.5,16.4,73.5z"/>
            <path
                d="M55.6,87.5c-0.6,0-1.1-0.1-1.6-0.4c-3.5-1.7-3.9-8.3-2.6-11.9c0.9-2.5,2.7-4.5,4.7-5.3c1.4-0.5,2.8-0.5,4,0.1     c3,1.4,4.2,5.9,2.5,10.2c-1,2.6-3,5.9-5.5,7C56.7,87.4,56.2,87.5,55.6,87.5z M55.8,83.5L55.8,83.5L55.8,83.5z M58.1,73.5     c-0.1,0-0.3,0-0.5,0.1c-0.7,0.3-1.8,1.2-2.4,3c-1,2.7-0.2,6.3,0.5,6.9c0.7-0.2,2.3-2,3.3-4.7c1-2.6,0.3-4.8-0.5-5.2     C58.4,73.5,58.3,73.5,58.1,73.5z"/>
            <path
                d="M37.6,122.3C37.6,122.3,37.6,122.3,37.6,122.3c-0.6,0-1.2-0.3-1.6-0.8l-10.6-14.7c-0.3-0.5-0.4-1-0.3-1.6     c0,0,0.3-1.7,0.5-2.6c0.2-0.9,0.3-2.5,0.4-4.7c0-1.1,1-2,2.1-1.9c1.1,0,2,1,1.9,2.1c-0.1,2.5-0.2,4.2-0.4,5.3     c-0.1,0.5-0.2,1.2-0.3,1.8l8.5,11.7l8.3-11.5c-0.2-0.7-0.5-1.4-0.6-2c-0.2-1-0.3-2.5-0.4-4.6c0-1.1,0.8-2,1.9-2.1     c1.1,0,2,0.8,2.1,1.9c0.1,2.3,0.2,3.4,0.3,4c0.1,0.3,0.5,1.4,0.8,2.2c0.3,0.6,0.2,1.4-0.2,1.9l-10.6,14.6     C38.8,122,38.2,122.3,37.6,122.3z"/>
            <path
                d="M38.1,104.1c-9.6,0-17.6-9.1-20.5-18.2c-0.3-1,0.2-2.1,1.2-2.5c0,0,0,0,0,0c0.4-0.3,1.1-2.1,1-4.5c0-0.5,0.1-1,0.5-1.4     l0.2-0.2c0.2-0.3,0.5-0.8,0.8-1.9c0.4-1.7,0.2-3.2,0-5.1c-0.1-0.8-0.2-1.6-0.3-2.5l0-0.1c-0.3-4.1-0.6-8,2-9.3     c1.9-1,4,0.3,4.7,0.8c0,0,0.1,0,0.1,0.1c0.7,0.5,1.6,1.1,2.7,1.7c0.9,0.5,3.7,1.8,10.4,2.1c2.6,0.1,6.3,0.1,11.5-0.8     c0.6-0.1,1.3,0.1,1.7,0.5c0.5,0.4,0.7,1,0.6,1.7c-0.2,2.3-0.1,4.5-0.1,6.3c0,0.9,0.1,1.8,0.1,2.7c0,1.7,0,3.5,0.1,5     c0,0.1,0,0.2,0,0.3c-0.2,2.5,0.5,4.4,0.9,4.8c0.6,0,1.2,0.4,1.5,0.9c0.4,0.5,0.5,1.2,0.2,1.8c-2.8,8.1-9.5,17.7-18.9,18     C38.4,104.1,38.3,104.1,38.1,104.1z M21.9,86c2.8,7.2,9.2,14.3,16.6,14.1c6.8-0.2,12-7.1,14.6-13.6c-1.9-1.7-2.5-5-2.3-8     c-0.1-1.5-0.1-3.4-0.1-5.1c0-0.8,0-1.6-0.1-2.5c-0.1-1.3-0.1-2.8-0.1-4.4c-4.3,0.6-7.5,0.6-9.8,0.5c-7.6-0.3-10.9-2-12-2.5     c-1.3-0.7-2.4-1.4-3.2-2c-0.3-0.2-0.5-0.3-0.7-0.4c-0.2,1.1,0,3.7,0.1,5.3l0,0.1c0.1,0.9,0.2,1.6,0.2,2.4c0.2,2.2,0.5,4,0,6.4     c-0.3,1.3-0.7,2.4-1.3,3.3C23.8,81.9,23.3,84.5,21.9,86z"/>
            <path
                d="M57.4,73.6c0,0-0.1,0-0.1,0c-1.1-0.1-1.9-1-1.9-2.1c0.2-3,0.3-5.8,0.4-8.1c0-0.6,0.3-1.1,0.7-1.5c1.5-1.2,2-2.8,2.1-4.2     c-1.7,0-3.6-0.4-4.8-1.1c-0.5-0.3-0.9-0.8-1-1.4c-0.1-0.6,0.1-1.2,0.5-1.6c0.8-1,1.4-1.7,1.6-2.6c-1.7,0.1-3.5-0.2-4.2-0.7     c-0.6-0.4-0.9-1.1-0.9-1.8c0.1-0.7,0.5-1.3,1.1-1.6c0.2-0.1,0.6-0.3,1-0.6c-0.2,0-0.4,0-0.6,0c-0.1,0-0.1,0-3.8-0.5l-1.2-0.2     c-0.4,0-0.6-0.1-0.8-0.1c-1.1-0.2-2-0.4-2.6-0.5c-0.3-0.1-0.5-0.1-0.7-0.1c-3.8-0.8-7.2-0.1-8.9,0.2c-1.9,0.4-8.4,2-13.2,7.9     c-0.4,0.6-3.9,6.6-2.9,14.1c0,0,0,0.1,0,0.1c0,0,0,0.1,0,0.1c0.1,0.8,0.4,2.1,0.8,3.8c0.2,1.1-0.4,2.1-1.5,2.4     c-1.1,0.2-2.1-0.4-2.4-1.5c-0.4-1.7-0.6-3-0.8-3.9c0-0.1,0-0.2,0-0.2c0,0,0-0.1,0-0.1c-1.4-9.6,3.3-16.7,3.5-17     c0,0,0.1-0.1,0.1-0.1c5.6-7,13.4-8.9,15.6-9.4c1.8-0.3,5.9-1.2,10.4-0.2c0.2,0,0.5,0.1,0.8,0.2c0.6,0.1,1.4,0.3,2.4,0.5     c0.2,0,0.4,0.1,0.7,0.1l1.2,0.2c1.8,0.2,3.3,0.4,3.5,0.4c1.1,0,2.3-0.3,3.5-1c0.7-0.4,1.5-0.3,2.1,0.1c0.6,0.4,1,1.2,0.8,2     c-0.2,1.1-0.6,2.2-1.1,3.2c0.1,0,0.2,0,0.3,0.1c0.7,0.2,1.2,0.7,1.4,1.4c0.7,2.5,0.3,4.4-0.4,5.8c0.7,0.1,1.4,0,1.7,0     c0.5-0.2,1.1-0.1,1.6,0.2c0.5,0.3,0.9,0.8,1,1.4c0.3,1.7,0.5,5.9-2.8,9.1c-0.1,2.2-0.2,4.7-0.4,7.4     C59.3,72.8,58.4,73.6,57.4,73.6z M17.3,67C17.3,67,17.3,67,17.3,67L17.3,67C17.3,67,17.3,67,17.3,67z M59.9,53.7     C59.9,53.7,59.8,53.7,59.9,53.7C59.8,53.7,59.9,53.7,59.9,53.7z"/>
        </g>
    </symbol>
    <symbol id="graph" viewBox="0 0 100 100">
        <path
            d="m57.5 45.02c-0.17 0-0.34-0.04-0.5-0.13-0.48-0.28-0.64-0.89-0.36-1.37l12.49-21.56c0.28-0.48 0.89-0.64 1.37-0.36s0.64 0.89 0.36 1.37l-12.5 21.55c-0.18 0.32-0.52 0.5-0.86 0.5z"/>
        <path
            d="m17.91 71.11c-0.3 0-0.59-0.13-0.79-0.39-0.34-0.44-0.26-1.06 0.17-1.4l15.58-12.12c0.4-0.31 0.97-0.27 1.32 0.08l9.23 9.26 13.21-23.01c0.27-0.48 0.88-0.65 1.37-0.37 0.48 0.27 0.64 0.89 0.37 1.36l-13.87 24.15c-0.16 0.27-0.43 0.45-0.74 0.49s-0.62-0.06-0.84-0.29l-9.53-9.56-14.86 11.59c-0.19 0.14-0.4 0.21-0.62 0.21z"/>
        <path
            d="m66.41 60.5c-0.22 0-0.45-0.08-0.63-0.23l-26.9-22.1-20.34 16.42c-0.43 0.35-1.06 0.28-1.41-0.15s-0.28-1.06 0.15-1.41l20.97-16.93c0.37-0.3 0.9-0.3 1.26 0.01l26.82 22.04 14.86-14.95c0.39-0.39 1.02-0.39 1.41 0s0.39 1.02 0 1.41l-15.48 15.59c-0.19 0.2-0.45 0.3-0.71 0.3z"/>
        <path
            d="m83.17 54.8c-0.55 0-1-0.45-1-1v-10.22h-10.24c-0.55 0-1-0.45-1-1s0.45-1 1-1h11.24c0.26 0 0.52 0.11 0.71 0.29s0.29 0.44 0.29 0.71v11.22c0 0.55-0.45 1-1 1z"/>
        <path
            d="m74.08 32.61c-0.43 0-0.83-0.28-0.96-0.71l-2.93-9.79-9.8 2.94c-0.53 0.16-1.09-0.14-1.25-0.67s0.14-1.09 0.67-1.25l10.76-3.23c0.25-0.07 0.53-0.05 0.76 0.08s0.41 0.34 0.48 0.59l3.22 10.74c0.16 0.53-0.14 1.09-0.67 1.25-0.09 0.04-0.18 0.05-0.28 0.05z"/>
        <path
            d="m88.58 84.8h-77.16c-1.1 0-2-0.9-2-2v-65.6c0-1.1 0.9-2 2-2s2 0.9 2 2v63.6h75.17c1.1 0 2 0.9 2 2-0.01 1.1-0.9 2-2.01 2z"/>
    </symbol>
    <symbol id="calculator" viewBox="0 0 100 100">
        <path
            d="m85.74 94.87h-71.48c-5.04 0-9.13-4.1-9.13-9.13v-71.48c0-5.04 4.1-9.13 9.13-9.13h71.48c5.04 0 9.13 4.1 9.13 9.13v71.48c0 5.03-4.1 9.13-9.13 9.13zm-71.48-85.74c-2.83 0-5.13 2.3-5.13 5.13v71.48c0 2.83 2.3 5.13 5.13 5.13h71.48c2.83 0 5.13-2.3 5.13-5.13v-71.48c0-2.83-2.3-5.13-5.13-5.13h-71.48z"/>
        <path d="m81.69 30.5h-22.37c-0.55 0-1-0.45-1-1s0.45-1 1-1h22.37c0.55 0 1 0.45 1 1s-0.45 1-1 1z"/>
        <path d="m29.5 41.68c-0.55 0-1-0.45-1-1v-22.37c0-0.55 0.45-1 1-1s1 0.45 1 1v22.37c0 0.55-0.45 1-1 1z"/>
        <path d="m40.68 30.5h-22.37c-0.55 0-1-0.45-1-1s0.45-1 1-1h22.37c0.55 0 1 0.45 1 1s-0.45 1-1 1z"/>
        <path d="m40.68 71.5h-22.37c-0.55 0-1-0.45-1-1s0.45-1 1-1h22.37c0.55 0 1 0.45 1 1s-0.45 1-1 1z"/>
        <path
            d="m81.69 82.69c-0.26 0-0.51-0.1-0.71-0.29l-22.37-22.37c-0.39-0.39-0.39-1.02 0-1.41s1.02-0.39 1.41 0l22.37 22.37c0.39 0.39 0.39 1.02 0 1.41-0.19 0.19-0.45 0.29-0.7 0.29z"/>
        <path
            d="m59.32 82.69c-0.26 0-0.51-0.1-0.71-0.29-0.39-0.39-0.39-1.02 0-1.41l22.37-22.37c0.39-0.39 1.02-0.39 1.41 0s0.39 1.02 0 1.41l-22.36 22.36c-0.2 0.2-0.45 0.3-0.71 0.3z"/>
        <path
            d="m29.5 65.91c-1.58 0-2.86-1.28-2.86-2.86s1.29-2.86 2.86-2.86 2.86 1.28 2.86 2.86-1.28 2.86-2.86 2.86zm0-3.73c-0.48 0-0.86 0.39-0.86 0.86 0 0.48 0.39 0.86 0.86 0.86 0.48 0 0.86-0.39 0.86-0.86s-0.39-0.86-0.86-0.86z"/>
        <path
            d="m29.5 80.82c-1.58 0-2.86-1.28-2.86-2.86s1.29-2.86 2.86-2.86 2.86 1.28 2.86 2.86-1.28 2.86-2.86 2.86zm0-3.72c-0.48 0-0.86 0.39-0.86 0.86 0 0.48 0.39 0.86 0.86 0.86 0.48 0 0.86-0.39 0.86-0.86 0-0.48-0.39-0.86-0.86-0.86z"/>
    </symbol>
</svg>
