<svg xmlns="http://www.w3.org/2000/svg" focusable="false">
    <symbol id="shopping-bag" viewBox="0 0 100 100">
        <path d="M81.791,13.047h-3.106l-0.297-3.951H50H21.612l-0.297,3.951h-3.106l-5.116,66.917c0,6.052,4.91,10.94,10.94,10.94H50h25.967  c6.052,0,10.94-4.91,10.94-10.94L81.791,13.047z M70.623,25.494C69.436,35.817,60.643,43.879,50,43.879  c-10.597,0-19.367-7.994-20.623-18.271c-0.822-0.525-1.37-1.462-1.37-2.512c0-1.644,1.325-2.969,2.969-2.969  c1.644,0,2.969,1.325,2.969,2.969c0,0.914-0.411,1.736-1.051,2.284c1.119,8.427,8.359,14.959,17.083,14.959  c8.701,0,15.896-6.463,17.06-14.845c-0.731-0.548-1.188-1.416-1.188-2.375c0-1.644,1.325-2.969,2.969-2.969s2.969,1.325,2.969,2.969  C71.834,24.078,71.354,24.946,70.623,25.494z"/>
    </symbol>
    <symbol id="email" viewBox="0 0 20 20"><path transform="translate(-2, -2)" d="M4 4h16a2 2 0 0 1 2 2v12a2 2 0 0 1-2 2H4a2 2 0 0 1-2-2V6c0-1.1.9-2 2-2zm16 3.38V6H4v1.38l8 4 8-4zm0 2.24l-7.55 3.77a1 1 0 0 1-.9 0L4 9.62V18h16V9.62z"/></symbol>
    <symbol id="call" viewBox="0 0 20 20"><path transform="translate(-2, -2)" d="M13.04 14.69l1.07-2.14a1 1 0 0 1 1.2-.5l6 2A1 1 0 0 1 22 15v5a2 2 0 0 1-2 2h-2A16 16 0 0 1 2 6V4c0-1.1.9-2 2-2h5a1 1 0 0 1 .95.68l2 6a1 1 0 0 1-.5 1.21L9.3 10.96a10.05 10.05 0 0 0 3.73 3.73zM8.28 4H4v2a14 14 0 0 0 14 14h2v-4.28l-4.5-1.5-1.12 2.26a1 1 0 0 1-1.3.46 12.04 12.04 0 0 1-6.02-6.01 1 1 0 0 1 .46-1.3l2.26-1.14L8.28 4z"/></symbol>
    <symbol id="cart" viewBox="0 0 20 20"><path transform="translate(-2, -2)" d="M17 16a3 3 0 1 1-2.83 2H9.83a3 3 0 1 1-5.62-.1A3 3 0 0 1 5 12V4H3a1 1 0 1 1 0-2h3a1 1 0 0 1 1 1v1h14a1 1 0 0 1 .9 1.45l-4 8a1 1 0 0 1-.9.55H5a1 1 0 0 0 0 2h12zM7 12h9.38l3-6H7v6zm0 8a1 1 0 1 0 0-2 1 1 0 0 0 0 2zm10 0a1 1 0 1 0 0-2 1 1 0 0 0 0 2z"/></symbol>
    <symbol id="settings" viewBox="0 0 20 20"><path transform="translate(-2, -2)" d="M9 4.58V4c0-1.1.9-2 2-2h2a2 2 0 0 1 2 2v.58a8 8 0 0 1 1.92 1.11l.5-.29a2 2 0 0 1 2.74.73l1 1.74a2 2 0 0 1-.73 2.73l-.5.29a8.06 8.06 0 0 1 0 2.22l.5.3a2 2 0 0 1 .73 2.72l-1 1.74a2 2 0 0 1-2.73.73l-.5-.3A8 8 0 0 1 15 19.43V20a2 2 0 0 1-2 2h-2a2 2 0 0 1-2-2v-.58a8 8 0 0 1-1.92-1.11l-.5.29a2 2 0 0 1-2.74-.73l-1-1.74a2 2 0 0 1 .73-2.73l.5-.29a8.06 8.06 0 0 1 0-2.22l-.5-.3a2 2 0 0 1-.73-2.72l1-1.74a2 2 0 0 1 2.73-.73l.5.3A8 8 0 0 1 9 4.57zM7.88 7.64l-.54.51-1.77-1.02-1 1.74 1.76 1.01-.17.73a6.02 6.02 0 0 0 0 2.78l.17.73-1.76 1.01 1 1.74 1.77-1.02.54.51a6 6 0 0 0 2.4 1.4l.72.2V20h2v-2.04l.71-.2a6 6 0 0 0 2.41-1.4l.54-.51 1.77 1.02 1-1.74-1.76-1.01.17-.73a6.02 6.02 0 0 0 0-2.78l-.17-.73 1.76-1.01-1-1.74-1.77 1.02-.54-.51a6 6 0 0 0-2.4-1.4l-.72-.2V4h-2v2.04l-.71.2a6 6 0 0 0-2.41 1.4zM12 16a4 4 0 1 1 0-8 4 4 0 0 1 0 8zm0-2a2 2 0 1 0 0-4 2 2 0 0 0 0 4z"/></symbol>
    <symbol id="arrow-right" viewBox="0 0 20 20"><path transform="translate(-2, -2)" d="M18.59 13H3a1 1 0 0 1 0-2h15.59l-5.3-5.3a1 1 0 1 1 1.42-1.4l7 7a1 1 0 0 1 0 1.4l-7 7a1 1 0 0 1-1.42-1.4l5.3-5.3z"/></symbol>
    <symbol id="pin" viewBox="0 0 20 22"><path transform="translate(-2, -1)" d="M5.64 16.36a9 9 0 1 1 12.72 0l-5.65 5.66a1 1 0 0 1-1.42 0l-5.65-5.66zm11.31-1.41a7 7 0 1 0-9.9 0L12 19.9l4.95-4.95zM12 14a4 4 0 1 1 0-8 4 4 0 0 1 0 8zm0-2a2 2 0 1 0 0-4 2 2 0 0 0 0 4z"/></symbol>
    <symbol id="map" viewBox="0 0 20 20"><path transform="translate(-2, -2)" d="M14 5.62l-4 2v10.76l4-2V5.62zm2 0v10.76l4 2V7.62l-4-2zm-8 2l-4-2v10.76l4 2V7.62zm7 10.5L9.45 20.9a1 1 0 0 1-.9 0l-6-3A1 1 0 0 1 2 17V4a1 1 0 0 1 1.45-.9L9 5.89l5.55-2.77a1 1 0 0 1 .9 0l6 3A1 1 0 0 1 22 7v13a1 1 0 0 1-1.45.89L15 18.12z"/></symbol>
    <symbol id="x" viewBox="0 0 20 20"><path transform="translate(-2, -2)" d="M16.24 14.83a1 1 0 0 1-1.41 1.41L12 13.41l-2.83 2.83a1 1 0 0 1-1.41-1.41L10.59 12 7.76 9.17a1 1 0 0 1 1.41-1.41L12 10.59l2.83-2.83a1 1 0 0 1 1.41 1.41L13.41 12l2.83 2.83z"/></symbol>
    <symbol id="trash" viewBox="0 0 20 20"><path d="M6 4V2a2 2 0 0 1 2-2h4a2 2 0 0 1 2 2v2h5a1 1 0 0 1 0 2h-1v12a2 2 0 0 1-2 2H4a2 2 0 0 1-2-2V6H1a1 1 0 1 1 0-2h5zM4 6v12h12V6H4zm8-2V2H8v2h4zM8 8a1 1 0 0 1 1 1v6a1 1 0 0 1-2 0V9a1 1 0 0 1 1-1zm4 0a1 1 0 0 1 1 1v6a1 1 0 0 1-2 0V9a1 1 0 0 1 1-1z"/></symbol>
    <symbol id="chevron" viewBox="0 0 10 6"><path d="M8.292893.292893c.390525-.390524 1.023689-.390524 1.414214 0 .390524.390525.390524 1.023689 0 1.414214l-4 4c-.390525.390524-1.023689.390524-1.414214 0l-4-4c-.390524-.390525-.390524-1.023689 0-1.414214.390525-.390524 1.023689-.390524 1.414214 0L5 3.585786 8.292893.292893z"/></symbol>
    <symbol id="bookmark-empty" viewBox="0 0 24 24"><path d="M5.5,20.87,12,17.15l6.5,3.72A1,1,0,0,0,20,20V5a2,2,0,0,0-2-2H6A2,2,0,0,0,4,5V20a1,1,0,0,0,1.5.87ZM6,5H18V18.28l-5.5-3.15a1,1,0,0,0-1,0L6,18.28Z"/></symbol>
    <symbol id="bookmark-filled" viewBox="0 0 24 24"><path d="M19,21a1,1,0,0,1-.5-.13L12,17.15,5.5,20.87A1,1,0,0,1,4,20V5A2,2,0,0,1,6,3H18a2,2,0,0,1,2,2V20a1,1,0,0,1-1,1Z"/></symbol>
    <symbol id="filter" viewBox="0 0 20 20"><path transform="translate(-2, -2)" d="M2.3 7.7A1 1 0 0 1 2 7V3a1 1 0 0 1 1-1h18a1 1 0 0 1 1 1v4a1 1 0 0 1-.3.7L15 14.42V17a1 1 0 0 1-.3.7l-4 4A1 1 0 0 1 9 21v-6.59l-6.7-6.7zM4 4v2.59l6.7 6.7a1 1 0 0 1 .3.71v4.59l2-2V14a1 1 0 0 1 .3-.7L20 6.58V4H4z"/></symbol>
    <symbol id="menu" viewBox="0 0 20 20"><path transform="translate(-2, -2)" d="M4 5h16a1 1 0 0 1 0 2H4a1 1 0 1 1 0-2zm0 6h16a1 1 0 0 1 0 2H4a1 1 0 0 1 0-2zm0 6h16a1 1 0 0 1 0 2H4a1 1 0 0 1 0-2z"/></symbol>
</svg>
