<?xml version="1.0" standalone="no"?>
<!DOCTYPE svg PUBLIC "-//W3C//DTD SVG 20010904//EN"
 "http://www.w3.org/TR/2001/REC-SVG-20010904/DTD/svg10.dtd">
<svg version="1.0" xmlns="http://www.w3.org/2000/svg"
 width="864.000000pt" height="864.000000pt" viewBox="0 0 864.000000 864.000000"
 preserveAspectRatio="xMidYMid meet">
<metadata>
Created by potrace 1.11, written by Peter Selinger 2001-2013
</metadata>
<g transform="translate(0.000000,864.000000) scale(0.100000,-0.100000)"
fill="#000000" stroke="none">
<path d="M1090 8590 c-7 -4 -9 -22 -11 -72 0 -7 2 -30 4 -51 3 -20 2 -39 -2
-42 -6 -3 -7 -44 -1 -52 5 -8 3 -50 -3 -60 -4 -6 -4 -14 1 -17 5 -3 7 -24 5
-48 -5 -57 -5 -57 0 -101 3 -20 2 -39 -2 -42 -6 -3 -7 -44 -1 -52 5 -8 3 -50
-3 -60 -4 -6 -4 -14 1 -17 5 -3 7 -24 5 -48 -5 -57 -5 -57 0 -101 3 -20 2 -39
-2 -42 -6 -3 -7 -44 -1 -52 5 -8 3 -50 -3 -60 -4 -6 -4 -14 1 -17 5 -3 7 -24
5 -48 -5 -54 -5 -56 0 -98 2 -19 2 -39 -1 -45 -9 -14 -10 -45 -2 -50 3 -2 5
-21 3 -42 -1 -20 1 -40 6 -43 5 -3 1033 -5 2285 -4 1252 0 2276 -2 2276 -4 0
-2 -28 -38 -62 -80 -35 -42 -67 -83 -73 -90 -5 -7 -17 -21 -25 -30 -8 -10 -26
-33 -40 -52 -13 -19 -29 -39 -35 -45 -7 -5 -27 -30 -46 -55 -18 -25 -36 -47
-39 -50 -3 -3 -19 -23 -36 -45 -16 -22 -34 -44 -40 -50 -6 -5 -45 -54 -87
-107 -140 -178 -231 -293 -237 -298 -3 -3 -21 -25 -39 -50 -19 -25 -39 -49
-45 -55 -6 -5 -30 -35 -53 -66 -23 -31 -47 -62 -55 -70 -7 -8 -41 -50 -76 -94
-87 -111 -82 -105 -127 -160 -22 -28 -43 -51 -47 -53 -5 -2 -8 -10 -8 -17 0
-7 -4 -15 -9 -17 -9 -3 -70 -77 -131 -158 -14 -18 -30 -38 -35 -44 -6 -6 -89
-110 -185 -231 -199 -250 -201 -253 -215 -269 -6 -6 -26 -31 -45 -56 -19 -25
-37 -47 -40 -50 -3 -3 -23 -29 -45 -58 -21 -28 -42 -52 -46 -52 -4 0 -10 -8
-13 -17 -4 -10 -23 -37 -44 -60 -20 -23 -46 -54 -57 -69 -11 -15 -33 -44 -50
-64 -16 -21 -43 -54 -60 -75 -16 -22 -43 -55 -60 -75 -16 -21 -43 -54 -60 -76
-16 -21 -37 -45 -45 -54 -8 -8 -26 -31 -40 -50 -13 -19 -27 -37 -30 -40 -3 -3
-23 -27 -45 -55 -22 -27 -44 -55 -50 -62 -5 -7 -15 -18 -20 -25 -86 -111 -161
-204 -165 -208 -3 -3 -21 -25 -40 -50 -19 -25 -42 -54 -52 -65 -13 -15 -172
-215 -215 -270 -56 -71 -93 -115 -115 -140 -16 -16 -28 -34 -28 -39 0 -5 -8
-16 -18 -25 -10 -9 -51 -59 -92 -111 -41 -52 -78 -97 -82 -98 -5 -2 -8 -8 -8
-13 0 -5 -8 -17 -17 -27 -10 -10 -30 -34 -45 -53 -14 -19 -36 -45 -47 -59 -11
-14 -24 -29 -29 -35 -4 -5 -26 -34 -47 -62 -22 -29 -43 -53 -47 -53 -4 0 -8
-5 -8 -10 0 -6 -10 -21 -22 -34 -13 -13 -32 -36 -43 -51 -11 -16 -35 -44 -52
-64 -18 -20 -33 -42 -33 -48 0 -7 -4 -13 -8 -13 -5 0 -30 -29 -57 -65 -27 -36
-53 -65 -57 -65 -5 0 -8 -6 -8 -14 0 -8 -4 -16 -8 -18 -4 -1 -79 -93 -167
-203 -88 -110 -162 -202 -165 -205 -3 -3 -23 -29 -45 -57 -21 -29 -43 -53 -47
-53 -4 0 -8 -5 -8 -12 0 -7 -9 -21 -20 -33 -35 -34 -531 -659 -538 -677 -4 -9
-7 -297 -7 -640 l0 -623 3497 -3 3497 -2 0 624 c1 485 -2 625 -12 628 -6 3
-1226 4 -2710 4 -1483 -1 -2697 2 -2697 6 0 4 6 13 13 20 7 7 51 60 97 118 47
58 87 107 90 110 3 3 23 28 44 55 22 28 50 61 62 75 13 14 78 93 144 175 122
151 176 218 195 239 6 6 28 34 50 61 22 28 53 66 70 86 16 20 46 55 65 79 19
24 139 170 265 325 127 155 246 301 265 325 19 24 40 48 45 54 6 6 51 61 100
121 49 61 118 146 154 190 175 214 256 313 285 348 17 22 36 44 41 50 6 7 37
46 70 87 63 78 93 115 110 134 6 6 37 45 70 86 32 41 66 82 75 91 8 9 29 34
45 55 31 39 111 136 180 219 22 27 46 58 54 69 8 12 18 23 21 26 3 3 46 55 95
115 49 61 94 115 100 121 5 6 24 28 40 49 27 34 159 197 203 250 9 11 37 45
62 75 25 30 47 57 50 60 3 3 21 25 40 50 19 25 42 52 52 61 10 9 18 21 18 27
0 6 4 12 8 14 5 2 60 66 122 143 63 77 117 142 120 145 3 3 32 39 64 80 32 41
64 80 70 85 6 6 30 35 53 65 23 30 50 64 60 75 10 11 36 43 58 70 22 28 53 66
70 86 63 75 75 89 75 94 0 2 10 15 23 28 12 14 35 40 50 58 15 19 33 41 40 49
7 8 31 37 53 65 21 27 44 55 49 61 6 6 21 25 35 43 14 18 31 39 38 46 7 8 52
63 100 122 48 59 95 117 104 128 9 11 33 40 53 65 20 25 44 54 53 65 59 72
109 132 122 149 8 11 27 33 43 49 15 17 27 33 27 36 0 5 31 42 94 114 9 9 16
19 16 22 0 3 8 13 18 23 33 36 70 80 87 106 17 25 18 72 19 632 1 332 -1 605
-4 605 -18 4 -6283 3 -6290 -1z"/>
</g>
</svg>
